<?xml version="1.0" encoding="UTF-8"?>
<svg width="520" height="160" version="1.1" viewBox="0 0 184.6 160" xmlns="http://www.w3.org/2000/svg">
 <g>
  <g fill="#999" stroke-width="3.6762">
   <circle cx="-88.184" cy="33.364" r="8.7865"/>
   <circle cx="-64.56" cy="33.338" r="8.7865"/>
   <circle cx="-158.91" cy="33.294" r="8.7865"/>
   <circle cx="-135.44" cy="33.415" r="8.7865"/>
   <circle cx="-135.36" cy="9.9599" r="8.7865"/>
   <circle cx="-111.74" cy="9.9342" r="8.7865"/>
   <circle cx="-88.111" cy="9.9085" r="8.7865"/>
   <circle cx="-158.84" cy="56.9" r="8.7865"/>
   <circle cx="-135.36" cy="57.021" r="8.7865"/>
   <circle cx="-88.111" cy="56.969" r="8.7865"/>
   <circle cx="-158.91" cy="80.358" r="8.7865"/>
   <circle cx="-111.81" cy="80.454" r="8.7865"/>
   <circle cx="-88.188" cy="80.428" r="8.7865"/>
   <circle cx="-64.56" cy="80.402" r="8.7865"/>
   <circle cx="-135.36" cy="104.09" r="8.7865"/>
   <circle cx="-111.74" cy="104.06" r="8.7865"/>
   <circle cx="-88.111" cy="104.03" r="8.7865"/>
  </g>
  <g fill="#4fa0ca" stroke-width="3.6764">
   <circle cx="-111.81" cy="33.389" r="8.7865"/>
   <circle cx="-64.486" cy="56.944" r="8.7865"/>
   <circle cx="-135.44" cy="80.48" r="8.7865"/>
  </g>
 </g>
 <path d="m-7.1673 110.43h-10.954v-106.62h10.954zm69.175-89.521c-2.3624-3.1666-5.3724-5.7006-9.0226-7.8116-3.6503-1.9014-8.1616-2.957-13.321-2.957-2.5758 0-5.3724 0.42295-8.1616 1.2688a27.377 27.363 0 0 0-7.5176 3.5895c-2.1489 1.6881-4.0845 3.7992-5.3724 6.3332a19.374 19.364 0 0 0-2.1489 8.8635c0 3.3836 0.64395 6.3368 1.9355 8.4479 1.2879 2.1111 3.0063 4.0088 5.3724 5.7006 2.1453 1.4785 4.7247 2.7436 7.5176 3.8028a107.15 107.1 0 0 0 8.8055 2.9533c3.8674 1.2688 7.5213 2.5377 11.385 4.0125 3.8674 1.4785 7.3042 3.1666 10.314 5.491 3.0063 2.3207 5.5858 5.0643 7.5176 8.6539 1.9318 3.3799 3.0063 7.8116 3.0063 13.093 0 5.2776-1.0745 9.9227-3.0063 13.722-2.1489 3.7992-4.7247 6.9658-7.9482 9.4998a29.945 29.93 0 0 1-11.385 5.491 45.36 45.336 0 0 1-12.89 1.9014c-3.2234 0-6.4468-0.42295-9.8837-1.0555a49.003 48.977 0 0 1-9.4532-2.957 33.989 33.972 0 0 1-8.375-5.068c-2.5795-2.1111-4.7284-4.2221-6.6603-6.9658l9.4531-6.9694c2.3624 3.8028 5.5821 6.9694 9.88 9.5034 4.2979 2.5303 9.236 3.7992 15.039 3.7992 2.7929 0 5.5858-0.42295 8.3787-1.2688a22.501 22.49 0 0 0 7.731-4.0088 18.34 18.33 0 0 0 5.5858-6.5465c1.505-2.534 2.1489-5.491 2.1489-8.8672 0-3.7992-0.64395-6.7561-2.1489-9.2901-1.5013-2.534-3.4368-4.4354-5.7992-6.1235-2.3624-1.6918-5.3724-2.957-8.3787-4.2221a278.85 278.7 0 0 1-9.88-3.3762 88.865 88.819 0 0 1-10.528-3.8028c-3.4368-1.4785-6.6603-3.1629-9.4532-5.4873a26.045 26.031 0 0 1-6.6603-8.4479c-1.7184-3.3762-2.5758-7.3887-2.5758-12.247 0-5.0643 1.0745-9.4998 3.2197-13.299 2.1489-3.7992 4.7284-6.7561 8.1653-9.2901 3.4368-2.3207 7.0908-4.2221 11.172-5.2776 4.0808-1.0555 8.1616-1.6918 12.033-1.6918 7.3005 0 13.747 1.2688 18.903 3.8028 5.1516 2.534 9.236 5.7006 11.812 9.0768zm21.913-17.102h30.722c5.5821 0 10.524 0.63258 15.035 1.6918a32.359 32.343 0 0 1 11.602 5.274 23.293 23.28 0 0 1 7.5176 8.8709c1.7184 3.5859 2.5758 7.8116 2.5758 12.666s-0.85737 9.0768-2.5758 12.666a23.293 23.28 0 0 1-7.5176 8.8709 32.359 32.343 0 0 1-11.602 5.2776c-4.5113 1.2652-9.6666 1.8977-15.035 1.8977h-19.337v49.617h-10.954v-106.83zm10.954 47.925h18.693c8.5921 0 15.252-1.6881 19.76-5.0643 4.515-3.3799 6.6602-8.2383 6.6602-14.568 0-6.5465-2.3624-11.401-6.8737-14.571-4.7247-3.1629-11.168-4.6451-19.547-4.6451h-18.693zm173.15 5.491c0 8.2346-1.5013 15.623-4.2942 22.379-2.7929 6.7561-6.8737 12.67-11.812 17.734a51.729 51.703 0 0 1-18.049 11.614 61.12 61.088 0 0 1-22.557 4.2221 61.12 61.088 0 0 1-22.557-4.2221c-6.8737-2.7436-12.89-6.7561-18.045-11.614-5.1553-5.0643-9.0226-10.978-11.812-17.734-2.7966-6.7561-4.3016-14.354-4.3016-22.379 0-8.2346 1.5087-15.623 4.2979-22.379 2.7966-6.7561 6.8737-12.67 11.816-17.734a51.729 51.703 0 0 1 18.045-11.614c6.8737-2.7436 14.395-4.2221 22.557-4.2221 8.1652 0 15.469 1.4785 22.557 4.2221 6.8737 2.7473 12.89 6.7561 18.045 11.614 5.1553 5.0643 9.0226 10.978 11.816 17.734 2.7966 6.7561 4.2979 14.145 4.2979 22.379zm-11.598 0c0-6.1235-1.0745-12.034-3.0063-17.734-2.149-5.7006-4.9418-10.555-8.8092-14.781-3.8637-4.2221-8.5921-7.5983-14.178-10.132-5.5858-2.5377-11.812-3.8028-18.689-3.8028-6.8737 0-13.321 1.2688-18.693 3.8028-5.5821 2.534-10.311 5.9102-14.174 10.132a43.185 43.163 0 0 0-8.8092 14.781c-2.1489 5.7006-3.0063 11.611-3.0063 17.734s1.0745 12.034 3.0063 17.734c2.149 5.7006 4.9418 10.555 8.8092 14.781 3.8637 4.2221 8.5921 7.5983 14.178 10.132 5.5858 2.5377 11.812 3.8028 18.689 3.8028 6.8737 0 13.321-1.2688 18.693-3.8028 5.5821-2.534 10.307-5.9102 14.174-10.132a41.286 41.265 0 0 0 8.8092-14.781c1.9318-5.7006 3.0063-11.611 3.0063-17.734zm33.515 53.207h-10.958v-106.62h31.793c5.3724 0 10.314 0.42295 14.829 1.4785 4.5076 1.0555 8.375 2.534 11.812 4.8547a25.927 25.914 0 0 1 7.7347 8.8672c1.9318 3.5895 2.7929 8.025 2.7929 13.303 0 4.0088-0.64395 7.3924-2.1489 10.769a33.011 32.994 0 0 1-5.7992 8.4442c-2.3624 2.3244-5.3724 4.2221-8.8092 5.7006-3.4368 1.4785-7.0908 2.3244-10.954 2.7436l31.793 50.886h-13.534l-30.074-49.831h-18.476zm0-59.117h19.12c8.8055 0 15.683-1.4785 20.621-4.6451 4.7284-3.1666 7.3042-7.8116 7.3042-14.148 0-3.5895-0.64394-6.5465-1.9318-8.8635a16.463 16.454 0 0 0-5.5858-5.9139c-2.3624-1.4785-5.1553-2.534-8.5921-3.3799a60.722 60.691 0 0 0-11.172-1.0555h-19.55v38.006z" fill="#716658" stroke-width="3.6788"/>
 <path d="m-10.435 150.93c-0.21342 0.73556-0.21342 0.9783-0.42684 1.7139h-7.6906c0.21342-0.73556 0.21342-0.9783 0.42684-1.7139h2.7782l2.7745-15.447h-2.7745c0.21342-0.73556 0.21342-0.98197 0.42684-1.7175h7.26c-0.21342 0.73556-0.21342 0.98197-0.42685 1.7175h-2.7745l-2.7782 15.447h3.2013zm4.0587-11.28c1.9208-0.48915 3.2013 0.48915 2.7745 2.2067 1.2805-1.7175 2.7782-2.4531 4.4892-2.4531 1.9208 0 2.7745 1.2284 2.7745 2.9422 1.0671-1.9603 2.9879-2.9422 4.9124-2.9422 2.9879 0 3.4184 2.6995 2.7745 5.6417l-0.85369 4.4134c-0.21342 1.4711-0.42684 1.9603 1.2842 1.7139l-0.2171 1.4711c-2.5611 0.49282-3.4148-0.24274-2.7745-2.9422l0.85369-4.6561c0.42685-2.2067 0-3.9242-1.9208-3.9242-1.9245 0-3.4221 1.7175-3.8453 3.9242l-1.494 7.5983h-1.9245l1.494-7.5983c0.43052-2.2067 0-3.9242-1.9208-3.9242s-3.6319 1.4711-4.0587 3.9242l-1.494 7.5983h-1.9245l1.7111-9.0695c0.42685-1.9639 0.42685-2.6995-1.0671-2.4531zm19.863 19.86 2.9916-16.671c0.21342-0.98197 0.42684-1.7175-1.0671-1.7175l0.20974-1.4711c1.9245-0.24641 2.9916 0.24641 2.5648 2.2067v0.48915c1.0671-1.7139 2.5611-2.6958 4.2685-2.6958 3.6355-0.24641 4.7027 3.1886 4.4892 6.62-0.42684 3.9242-2.9916 7.3556-6.41 7.3556-1.7074 0-2.9879-0.73556-3.6282-2.6958l-1.7111 9.0695h-1.7074zm6.8332-8.3376c2.7782 0 4.4892-2.9422 4.9124-5.6381 0.21342-2.6958-0.64027-4.4134-2.9879-4.4134-2.7782 0-4.699 3.1886-4.699 6.3736 0 2.2067 0.85369 3.6778 2.7745 3.6778zm16.875-12.012c1.0671 0 1.9208 0.24274 2.5648 0.9783l-0.85737 1.7175c-0.64027-0.48915-1.2805-0.98197-2.3476-0.98197-1.7111 0-3.4184 1.4711-3.8453 3.4351l-1.494 8.0912h-1.9245c0.85369-4.9062 0.85369-5.1489 1.9245-10.055 0.21342-1.2247 0.42684-1.9603-1.0671-1.7139l0.21342-1.4711c1.9208-0.24641 2.9879-0.24641 2.7745 1.9603 1.0671-1.4711 2.3513-1.9603 4.0587-1.9603zm7.6906 13.729c-2.5648 0-4.9124-1.7175-4.9124-5.3953 0-5.3917 4.055-8.0912 7.4735-8.0912 2.5648 0 4.9124 1.9639 4.9124 5.3953 0 5.3953-3.4148 8.0912-7.4735 8.0912zm0.21342-1.7175c2.5611 0 5.3356-1.7139 5.3356-6.1272 0.2171-2.4531-1.4903-3.9242-3.4148-3.9242-2.3476 0-5.3392 2.2067-5.3392 6.1309 0.21342 2.6958 1.7074 3.9205 3.4184 3.9205zm19.223-11.523h1.9208c0.64027 5.1489 0.42684 13.24-6.6235 13.24-2.9879 0-4.6953-2.2067-4.055-5.6381l0.64027-3.4351c0.21342-1.7139 0.85369-2.9422-0.85369-2.9422l0.21342-1.4711c2.1342-0.48915 3.4184 0.24641 2.7782 2.9422l-0.85737 4.9062c-0.42684 2.2067 0.21342 3.9205 2.5648 3.9205 4.9124 0 4.9124-8.0912 4.2685-11.523zm6.1929 13.24h-1.9208l2.3476-12.994h1.9245zm2.5648-18.878c0.42685 0 1.0671 0.24274 1.0671 0.9783 0 0.98197-0.85369 1.7175-1.494 1.7175-0.42684 0-0.85737-0.24641-0.85737-0.98197-0.21342-1.2247 0.64395-1.7139 1.2842-1.7139zm2.9879 5.6381c1.9245-0.48915 2.9916 0.24641 2.7782 2.2067 1.0671-1.7175 2.7782-2.4531 4.4856-2.4531 2.9916 0 4.0587 2.4531 3.6319 5.6417l-0.85369 4.9025c-0.2171 1.2247-0.2171 1.7175 1.0671 1.4711l-0.21342 1.4711c-2.1342 0.48915-3.205 0-2.7782-2.9422l0.85369-4.9025c0.42685-2.4531-0.64027-3.9242-2.5611-3.9242-1.9245 0-3.6319 1.4711-4.0587 3.9242l-1.494 7.5983h-1.9245l1.7111-9.3159c0.42684-1.9603 0.64027-2.6958-1.0671-2.4531zm13.243 17.164c2.7782 1.9603 7.6906 2.2067 8.7577-3.4351l0.64027-3.185c-1.0671 1.9603-2.5611 2.6958-4.4856 2.6958-3.2013 0-4.2685-3.1886-4.0587-6.1309 0.64395-4.9025 3.8453-7.5983 7.6906-7.5983 1.494 0 2.9916 0.48915 4.2721 1.2247l-2.3513 12.751c-1.2805 6.3736-6.1929 7.8448-10.892 5.1489zm10.682-14.958a5.2988 5.296 0 0 0-2.7782-0.73556c-2.7782 0-5.1258 1.9603-5.3392 5.3953-0.42684 2.2067 0.42684 4.6561 2.5611 4.6561 2.3513 0 4.2721-2.6958 4.699-5.1489zm12.599 11.033h-1.9208l3.6319-19.86h1.9208l-1.7074 8.5803c0.85369-1.2247 2.7745-1.9603 4.2684-1.9603 3.4221 0 4.0587 3.1886 3.4221 6.3736l-0.64394 3.6778c-0.21343 1.2284-0.21343 1.9639 1.2805 1.7175l-0.21342 1.7175c-2.7745 0.48915-3.2013-0.49282-2.7745-3.1886l0.64026-3.6778c0.64027-3.1886 0-4.6598-2.3513-4.6598-1.9208 0-3.6282 1.7175-4.055 3.9242zm22.428-0.73556c-1.494 0.73556-2.7782 0.98197-4.0587 0.98197-4.0587 0-5.9795-2.9422-4.9124-7.602 1.0671-3.9242 3.8453-5.8845 7.0503-6.1309 2.3476 0 4.699 1.2284 4.0587 4.4134-0.64395 2.9422-3.205 3.9242-5.1295 3.9242-1.494 0-3.2013-0.24641-4.2684-1.2247-0.64395 3.4314 0.85369 5.1489 3.6282 5.1489 1.2842 0 2.7782-0.49282 4.0587-1.2284zm-3.2013-6.3736c1.2805 0 2.9879-0.49282 3.4148-2.2067 0.42685-1.7175-1.2805-2.4531-2.5611-2.4531-1.9245 0-3.6319 1.2247-4.4892 3.4314 0.64394 0.98197 2.355 1.2284 3.6319 1.2284zm17.725 3.4314c-0.21343 1.2247-0.42685 1.9603 1.0671 1.9603l-0.21342 1.7175c-1.9208 0.24641-2.9879-0.24641-2.5611-2.2067v-0.48915c-1.0671 1.9603-2.9916 2.9422-4.699 2.9422-3.4184 0-4.699-3.1886-3.8453-6.8664 0.85369-4.4134 3.8453-6.62 7.6906-6.62 1.494 0 2.9879 0.48915 4.2685 1.2247zm-0.42685-7.3556a5.8838 5.8808 0 0 0-2.7782-0.73556c-2.5611 0-4.699 1.9603-5.3356 5.1489-0.43052 2.6958 0.20974 4.6598 2.5611 4.6598 2.3476 0 4.2684-1.9639 4.699-4.9062zm9.8248-9.0731-2.7745 15.204c-0.42685 2.4494-0.21343 3.4314 2.3476 3.185l-0.21342 1.7175c-3.6319 0.73556-4.699-0.73556-3.8453-4.9025l2.7782-15.204zm6.6235 6.8664h4.2684l-0.20974 1.4711h-4.2721l-1.2842 6.3736c-0.85369 3.9242 1.0671 4.1706 4.0587 3.1886v1.7175c-4.0587 1.4711-6.6235 0.24274-5.7661-4.9062l1.2805-6.3736-2.3476-0.24641 0.21342-1.4711h2.5611l0.85369-4.167h1.4976zm6.8332 13.24h-1.9208l3.6282-19.86h1.9245l-1.7074 8.5803c0.85369-1.2247 2.7745-1.9603 4.2684-1.9603 3.4221 0 4.0587 3.1886 3.4221 6.3736l-0.64395 3.6778c-0.21342 1.2284-0.21342 1.9639 1.2805 1.7175l-0.21343 1.7175c-2.7745 0.48915-3.2013-0.49282-2.7745-3.1886l0.64027-3.6778c0.64027-3.1886 0-4.6598-2.3513-4.6598-1.9208 0-3.6282 1.7175-4.0587 3.9242zm23.495-9.3159c-0.21343-1.7175-1.7074-2.4531-2.9879-2.4531-2.1342 0-4.699 1.9603-5.3429 5.1489-0.42685 2.6958 0.64394 4.6598 2.9916 4.9025 1.494 0 3.2013-0.73556 4.2684-2.6958h1.9245c-1.2805 3.1886-4.0587 4.6598-6.4064 4.6598-2.9916 0-5.1258-2.4531-4.9124-6.1309 0.64027-5.1489 4.2684-7.602 7.4772-7.602 2.3476 0 4.2684 1.4711 4.4819 4.4134h-1.494zm14.31 5.6381c-0.21342 1.2247-0.42685 1.9603 1.0671 1.9603l-0.21342 1.7175c-1.9208 0.24641-2.9879-0.24641-2.5611-2.2067v-0.48915c-1.0671 1.9603-2.9916 2.9422-4.699 2.9422-3.4184 0-4.699-3.1886-3.8453-6.8664 0.85369-4.4134 3.8453-6.62 7.6906-6.62 1.494 0 2.9879 0.48915 4.2684 1.2247zm-0.42685-7.3556a5.8838 5.8808 0 0 0-2.7745-0.73556c-2.5648 0-4.699 1.9603-5.3429 5.1489-0.42685 2.6958 0.21342 4.6598 2.5648 4.6598 2.3476 0 4.2684-1.9639 4.699-4.9062zm12.176-2.6958c1.0671 0 1.9208 0.24274 2.5611 0.9783l-0.85369 1.7175c-0.64027-0.48915-1.2805-0.98197-2.3476-0.98197-1.7111 0-3.4221 1.4711-3.8453 3.4351l-1.4976 8.0912h-1.7074c0.85369-4.9062 0.85369-5.1489 1.9245-10.055 0.21342-1.2247 0.42685-1.9603-1.0671-1.7139l0.20974-1.4711c1.9245-0.24641 2.9916-0.24641 2.7782 1.9603 1.0671-1.4711 2.3476-1.9603 3.8453-1.9603zm12.386 12.994c-1.494 0.73556-2.7745 0.98197-4.055 0.98197-4.0587 0-5.9832-2.9422-4.9124-7.602 1.0671-3.9242 3.8416-5.8845 7.0466-6.1309 2.3513 0 4.699 1.2284 4.0587 4.4134-0.64027 2.9422-3.2013 3.9242-5.1258 3.9242-1.4976 0-3.2013-0.24641-4.2721-1.2247-0.64026 3.4314 0.85369 5.1489 3.6319 5.1489 1.2805 0 2.7745-0.49282 4.0587-1.2284zm-3.2013-6.3736c1.2805 0 2.9879-0.49282 3.4148-2.2067 0.43053-1.7175-1.2805-2.4531-2.5611-2.4531-1.9208 0-3.6319 1.2247-4.4856 3.4314 0.64027 0.98197 2.1342 1.2284 3.6319 1.2284zm27.554-12.997-2.9916 16.429c-0.21342 1.2247-0.42684 1.9603 1.0671 1.9603l-0.21342 1.7175c-1.9208 0.24641-2.7745-0.24641-2.5611-2.2067v-0.48915c-1.0671 1.9603-2.7782 2.9422-4.699 2.9422-2.7782 0-4.2721-2.4531-4.2721-5.3953 0-4.167 2.5611-8.5803 6.6235-8.5803 1.7074 0 3.4148 0.73556 3.6282 2.6958l1.7074-9.0731zm-4.0624 12.015c0-2.2067-0.85369-3.9242-2.7782-3.9242-2.9879 0-4.4856 2.9422-4.9124 5.6417-0.21343 2.2067 0.42684 4.4134 2.5648 4.4134 2.9879 0 5.1258-2.6995 5.1258-6.1309zm14.527 7.3556c-1.494 0.73556-2.7782 0.98197-4.0587 0.98197-4.0587 0-5.9795-2.9422-4.9124-7.602 1.0671-3.9242 3.8453-5.8845 7.0503-6.1309 2.3476 0 4.699 1.2284 4.055 4.4134-0.64027 2.9422-3.2013 3.9242-5.1258 3.9242-1.494 0-3.2013-0.24641-4.2684-1.2247-0.64395 3.4314 0.85369 5.1489 3.6282 5.1489 1.2805 0 2.7782-0.49282 4.0587-1.2284zm-3.2013-6.3736c1.2805 0 2.9879-0.49282 3.4148-2.2067 0.42684-1.7175-1.2805-2.4531-2.5648-2.4531-1.9208 0-3.6282 1.2247-4.4856 3.4314 0.64395 0.98197 2.3513 1.2284 3.6319 1.2284zm17.512-2.2067c-0.21343-1.7175-1.7074-2.4531-2.9916-2.4531-2.1342 0-4.699 1.9603-5.3356 5.1489-0.43053 2.6958 0.63658 4.6598 2.9879 4.9025 1.494 0 3.2013-0.73556 4.2684-2.6958h1.9245c-1.2805 3.1886-4.0587 4.6598-6.4064 4.6598-2.9916 0-5.1258-2.4531-4.9124-6.1309 0.64027-5.1489 4.2684-7.602 7.4735-7.602 2.3513 0 4.2721 1.4711 4.4892 4.4134h-1.4976zm5.3392 9.3159h-1.9208l2.3476-12.994h1.9245zm2.5648-18.878c0.42685 0 1.0671 0.24274 1.0671 0.9783 0 0.98197-0.85369 1.7175-1.494 1.7175-0.42685 0-0.85737-0.24641-0.85737-0.98197-0.21343-1.2247 0.64394-1.7139 1.2842-1.7139zm3.2013 14.954c-0.21342 1.9639 1.2842 2.2067 2.9916 2.2067 1.494 0 3.4184-0.73556 3.6319-2.2067s-0.85369-1.9603-2.7782-2.2067c-1.9208-0.24274-4.2684-0.9783-4.2684-3.185 0-2.9422 2.7745-4.4134 5.5527-4.4134 2.3476 0 4.4819 1.2247 4.055 3.6778h-1.7074c0.21342-1.4711-1.0671-1.9639-2.5648-1.9639-1.494 0-3.4148 0.73556-3.4148 2.4531 0 0.98197 1.0671 1.4711 2.7745 1.7175 2.3513 0.24274 4.699 0.9783 4.0587 4.167-0.42684 2.6958-2.9879 3.6778-5.7661 3.9242-2.5648 0-4.699-0.98197-4.2721-3.9242h1.7074zm13.03 3.9242h-1.9208l2.3476-12.994h1.9245zm2.5648-18.878c0.42685 0 1.0671 0.24274 1.0671 0.9783 0 0.98197-0.85369 1.7175-1.494 1.7175-0.42684 0-0.85737-0.24641-0.85737-0.98197-0.21342-1.2247 0.43053-1.7139 1.2842-1.7139zm6.8332 18.878c-2.5611 0-4.9124-1.7175-4.9124-5.3953 0-5.3917 4.0587-8.0912 7.4772-8.0912 2.5611 0 4.9124 1.9639 4.9124 5.3953 0 5.3953-3.6319 8.0912-7.4772 8.0912zm0.21343-1.7175c2.5648 0 5.3392-1.7139 5.3392-6.1272 0.21342-2.4531-1.494-3.9242-3.4148-3.9242-2.3513 0-5.3392 2.2067-5.3392 6.1309 0 2.6958 1.7074 3.9205 3.4148 3.9205zm10.678-11.523c1.9245-0.48915 2.9916 0.24641 2.7782 2.2067 1.0671-1.7175 2.7782-2.4531 4.4892-2.4531 2.9879 0 4.055 2.4531 3.6282 5.6417l-0.85369 4.9025c-0.21343 1.2247-0.21343 1.7175 1.0671 1.4711l-0.21342 1.4711c-2.1342 0.48915-3.2013 0-2.7782-2.9422l0.85737-4.9025c0.42685-2.4531-0.64394-3.9242-2.5648-3.9242-1.9208 0-3.6319 1.4711-4.0587 3.9242l-1.494 7.5983h-1.9245l1.7111-9.3159c0.42685-1.9603 0.64027-2.6958-1.0671-2.4531l0.42684-1.2247zm15.168 9.3159c-0.21342 1.9639 1.2805 2.2067 2.9879 2.2067 1.4976 0 3.4221-0.73556 3.6319-2.2067 0.21342-1.4711-0.85369-1.9603-2.7745-2.2067-1.9245-0.24274-4.2721-0.9783-4.2721-3.185 0-2.9422 2.7745-4.4134 5.5527-4.4134 2.3476 0 4.4856 1.2247 4.0587 3.6778h-1.7111c0.21342-1.4711-1.0671-1.9639-2.5611-1.9639s-3.4184 0.73556-3.4184 2.4531c0 0.98197 1.0671 1.4711 2.7782 1.7175 2.3476 0.24274 4.699 0.9783 4.0587 4.167-0.42685 2.6958-2.9916 3.6778-5.7698 3.9242-2.5611 0-4.699-0.98197-4.2684-3.9242h1.7074z" fill="#716658" stroke-width="3.6788"/>
</svg>
