<svg xmlns="http://www.w3.org/2000/svg" xmlns:xlink="http://www.w3.org/1999/xlink" version="1.1" width="256" height="256" viewBox="0 0 256 256" xml:space="preserve">

<defs>
</defs>
<g style="stroke: none; stroke-width: 0; stroke-dasharray: none; stroke-linecap: butt; stroke-linejoin: miter; stroke-miterlimit: 10; fill: none; fill-rule: nonzero; opacity: 1;" transform="translate(1.4065934065934016 1.4065934065934016) scale(2.81 2.81)" >
	<path d="M 45 48.715 c -13.431 0 -24.357 -10.927 -24.357 -24.357 S 31.569 0 45 0 s 24.357 10.927 24.357 24.357 S 58.431 48.715 45 48.715 z M 45 4 c -11.225 0 -20.357 9.132 -20.357 20.357 S 33.775 44.715 45 44.715 c 11.226 0 20.357 -9.132 20.357 -20.357 S 56.226 4 45 4 z" style="stroke: none; stroke-width: 1; stroke-dasharray: none; stroke-linecap: butt; stroke-linejoin: miter; stroke-miterlimit: 10; fill: #383838; fill-rule: nonzero; opacity: 1;" transform=" matrix(1 0 0 1 0 0) " stroke-linecap="round" />
	<path d="M 78.996 90 c -1.104 0 -2 -0.896 -2 -2 V 75.786 c 0 -10.271 -8.356 -18.628 -18.628 -18.628 H 31.632 c -10.272 0 -18.628 8.356 -18.628 18.628 V 88 c 0 1.104 -0.896 2 -2 2 s -2 -0.896 -2 -2 V 75.786 c 0 -12.478 10.151 -22.628 22.628 -22.628 h 26.736 c 12.478 0 22.628 10.15 22.628 22.628 V 88 C 80.996 89.104 80.101 90 78.996 90 z" style="stroke: none; stroke-width: 1; stroke-dasharray: none; stroke-linecap: butt; stroke-linejoin: miter; stroke-miterlimit: 10; fill: #383838; fill-rule: nonzero; opacity: 1;" transform=" matrix(1 0 0 1 0 0) " stroke-linecap="round" />
</g>
</svg>